<mxfile host="app.diagrams.net" modified="2024-02-12T19:06:58.945Z" agent="Mozilla/5.0 (Windows NT 10.0; Win64; x64) AppleWebKit/537.36 (KHTML, like Gecko) Chrome/121.0.0.0 Safari/537.36 Edg/121.0.0.0" etag="nTm33Wvzj_eXC0C13KQB" version="23.1.2" type="device">
  <diagram name="Página-1" id="vwiHzoExiC-dmeyOh0d_">
    <mxGraphModel dx="1042" dy="569" grid="1" gridSize="10" guides="1" tooltips="1" connect="1" arrows="1" fold="1" page="1" pageScale="1" pageWidth="827" pageHeight="1169" math="0" shadow="0">
      <root>
        <mxCell id="0" />
        <mxCell id="1" parent="0" />
        <mxCell id="XgDHDm4i5gvrloj-Nrfc-1" value="alumno" style="swimlane;fontStyle=1;align=center;verticalAlign=top;childLayout=stackLayout;horizontal=1;startSize=26;horizontalStack=0;resizeParent=1;resizeParentMax=0;resizeLast=0;collapsible=1;marginBottom=0;whiteSpace=wrap;html=1;" vertex="1" parent="1">
          <mxGeometry x="100" y="90" width="160" height="152" as="geometry" />
        </mxCell>
        <mxCell id="XgDHDm4i5gvrloj-Nrfc-2" value="- nombre&lt;br&gt;- DNI&lt;br&gt;- direccion&lt;br&gt;- telefono&lt;br&gt;- titulación&lt;br&gt;- asignaturas" style="text;strokeColor=none;fillColor=none;align=left;verticalAlign=top;spacingLeft=4;spacingRight=4;overflow=hidden;rotatable=0;points=[[0,0.5],[1,0.5]];portConstraint=eastwest;whiteSpace=wrap;html=1;" vertex="1" parent="XgDHDm4i5gvrloj-Nrfc-1">
          <mxGeometry y="26" width="160" height="94" as="geometry" />
        </mxCell>
        <mxCell id="XgDHDm4i5gvrloj-Nrfc-3" value="" style="line;strokeWidth=1;fillColor=none;align=left;verticalAlign=middle;spacingTop=-1;spacingLeft=3;spacingRight=3;rotatable=0;labelPosition=right;points=[];portConstraint=eastwest;strokeColor=inherit;" vertex="1" parent="XgDHDm4i5gvrloj-Nrfc-1">
          <mxGeometry y="120" width="160" height="8" as="geometry" />
        </mxCell>
        <mxCell id="XgDHDm4i5gvrloj-Nrfc-4" value="methodAlumno: alumno" style="text;strokeColor=none;fillColor=none;align=left;verticalAlign=top;spacingLeft=4;spacingRight=4;overflow=hidden;rotatable=0;points=[[0,0.5],[1,0.5]];portConstraint=eastwest;whiteSpace=wrap;html=1;" vertex="1" parent="XgDHDm4i5gvrloj-Nrfc-1">
          <mxGeometry y="128" width="160" height="24" as="geometry" />
        </mxCell>
        <mxCell id="XgDHDm4i5gvrloj-Nrfc-5" value="historial_alumno" style="swimlane;fontStyle=1;align=center;verticalAlign=top;childLayout=stackLayout;horizontal=1;startSize=26;horizontalStack=0;resizeParent=1;resizeParentMax=0;resizeLast=0;collapsible=1;marginBottom=0;whiteSpace=wrap;html=1;" vertex="1" parent="1">
          <mxGeometry x="430" y="90" width="160" height="140" as="geometry" />
        </mxCell>
        <mxCell id="XgDHDm4i5gvrloj-Nrfc-6" value="- notas&lt;br&gt;- asignaturas_cursadas&lt;br&gt;- convocatorias:" style="text;strokeColor=none;fillColor=none;align=left;verticalAlign=top;spacingLeft=4;spacingRight=4;overflow=hidden;rotatable=0;points=[[0,0.5],[1,0.5]];portConstraint=eastwest;whiteSpace=wrap;html=1;" vertex="1" parent="XgDHDm4i5gvrloj-Nrfc-5">
          <mxGeometry y="26" width="160" height="64" as="geometry" />
        </mxCell>
        <mxCell id="XgDHDm4i5gvrloj-Nrfc-7" value="" style="line;strokeWidth=1;fillColor=none;align=left;verticalAlign=middle;spacingTop=-1;spacingLeft=3;spacingRight=3;rotatable=0;labelPosition=right;points=[];portConstraint=eastwest;strokeColor=inherit;" vertex="1" parent="XgDHDm4i5gvrloj-Nrfc-5">
          <mxGeometry y="90" width="160" height="8" as="geometry" />
        </mxCell>
        <mxCell id="XgDHDm4i5gvrloj-Nrfc-8" value="+ methodHistorialAlumno:&amp;nbsp;&lt;br&gt;type: historialAlumno" style="text;strokeColor=none;fillColor=none;align=left;verticalAlign=top;spacingLeft=4;spacingRight=4;overflow=hidden;rotatable=0;points=[[0,0.5],[1,0.5]];portConstraint=eastwest;whiteSpace=wrap;html=1;" vertex="1" parent="XgDHDm4i5gvrloj-Nrfc-5">
          <mxGeometry y="98" width="160" height="42" as="geometry" />
        </mxCell>
        <mxCell id="XgDHDm4i5gvrloj-Nrfc-11" value="dispatch" style="html=1;verticalAlign=bottom;startArrow=circle;startFill=1;endArrow=open;startSize=6;endSize=8;curved=0;rounded=0;entryX=-0.01;entryY=0.694;entryDx=0;entryDy=0;entryPerimeter=0;" edge="1" parent="1" target="XgDHDm4i5gvrloj-Nrfc-6">
          <mxGeometry width="80" relative="1" as="geometry">
            <mxPoint x="260" y="159.5" as="sourcePoint" />
            <mxPoint x="340" y="159.5" as="targetPoint" />
          </mxGeometry>
        </mxCell>
        <mxCell id="XgDHDm4i5gvrloj-Nrfc-12" value="Titulaciones" style="swimlane;fontStyle=1;align=center;verticalAlign=top;childLayout=stackLayout;horizontal=1;startSize=26;horizontalStack=0;resizeParent=1;resizeParentMax=0;resizeLast=0;collapsible=1;marginBottom=0;whiteSpace=wrap;html=1;" vertex="1" parent="1">
          <mxGeometry x="190" y="290" width="160" height="150" as="geometry" />
        </mxCell>
        <mxCell id="XgDHDm4i5gvrloj-Nrfc-13" value="- asignaturas&lt;br&gt;- ciclo&lt;br&gt;" style="text;strokeColor=none;fillColor=none;align=left;verticalAlign=top;spacingLeft=4;spacingRight=4;overflow=hidden;rotatable=0;points=[[0,0.5],[1,0.5]];portConstraint=eastwest;whiteSpace=wrap;html=1;" vertex="1" parent="XgDHDm4i5gvrloj-Nrfc-12">
          <mxGeometry y="26" width="160" height="74" as="geometry" />
        </mxCell>
        <mxCell id="XgDHDm4i5gvrloj-Nrfc-14" value="" style="line;strokeWidth=1;fillColor=none;align=left;verticalAlign=middle;spacingTop=-1;spacingLeft=3;spacingRight=3;rotatable=0;labelPosition=right;points=[];portConstraint=eastwest;strokeColor=inherit;" vertex="1" parent="XgDHDm4i5gvrloj-Nrfc-12">
          <mxGeometry y="100" width="160" height="8" as="geometry" />
        </mxCell>
        <mxCell id="XgDHDm4i5gvrloj-Nrfc-15" value="+ method(titulaciones): titulaciones" style="text;strokeColor=none;fillColor=none;align=left;verticalAlign=top;spacingLeft=4;spacingRight=4;overflow=hidden;rotatable=0;points=[[0,0.5],[1,0.5]];portConstraint=eastwest;whiteSpace=wrap;html=1;" vertex="1" parent="XgDHDm4i5gvrloj-Nrfc-12">
          <mxGeometry y="108" width="160" height="42" as="geometry" />
        </mxCell>
        <mxCell id="XgDHDm4i5gvrloj-Nrfc-16" value="asignaturas" style="swimlane;fontStyle=1;align=center;verticalAlign=top;childLayout=stackLayout;horizontal=1;startSize=26;horizontalStack=0;resizeParent=1;resizeParentMax=0;resizeLast=0;collapsible=1;marginBottom=0;whiteSpace=wrap;html=1;" vertex="1" parent="1">
          <mxGeometry x="190" y="470" width="160" height="130" as="geometry" />
        </mxCell>
        <mxCell id="XgDHDm4i5gvrloj-Nrfc-23" value="- nombre&lt;br&gt;- créditos&lt;br&gt;- tipo&amp;nbsp;" style="text;strokeColor=none;fillColor=none;align=left;verticalAlign=top;spacingLeft=4;spacingRight=4;overflow=hidden;rotatable=0;points=[[0,0.5],[1,0.5]];portConstraint=eastwest;whiteSpace=wrap;html=1;" vertex="1" parent="XgDHDm4i5gvrloj-Nrfc-16">
          <mxGeometry y="26" width="160" height="58" as="geometry" />
        </mxCell>
        <mxCell id="XgDHDm4i5gvrloj-Nrfc-18" value="" style="line;strokeWidth=1;fillColor=none;align=left;verticalAlign=middle;spacingTop=-1;spacingLeft=3;spacingRight=3;rotatable=0;labelPosition=right;points=[];portConstraint=eastwest;strokeColor=inherit;" vertex="1" parent="XgDHDm4i5gvrloj-Nrfc-16">
          <mxGeometry y="84" width="160" height="8" as="geometry" />
        </mxCell>
        <mxCell id="XgDHDm4i5gvrloj-Nrfc-19" value="+ method(asignaturas): asignaturas" style="text;strokeColor=none;fillColor=none;align=left;verticalAlign=top;spacingLeft=4;spacingRight=4;overflow=hidden;rotatable=0;points=[[0,0.5],[1,0.5]];portConstraint=eastwest;whiteSpace=wrap;html=1;" vertex="1" parent="XgDHDm4i5gvrloj-Nrfc-16">
          <mxGeometry y="92" width="160" height="38" as="geometry" />
        </mxCell>
        <mxCell id="XgDHDm4i5gvrloj-Nrfc-20" value="" style="endArrow=open;html=1;endSize=12;startArrow=diamondThin;startSize=14;startFill=0;edgeStyle=orthogonalEdgeStyle;rounded=0;entryX=1;entryY=0.5;entryDx=0;entryDy=0;exitX=1;exitY=0.5;exitDx=0;exitDy=0;" edge="1" parent="1" source="XgDHDm4i5gvrloj-Nrfc-23" target="XgDHDm4i5gvrloj-Nrfc-8">
          <mxGeometry relative="1" as="geometry">
            <mxPoint x="350" y="509" as="sourcePoint" />
            <mxPoint x="654" y="221" as="targetPoint" />
          </mxGeometry>
        </mxCell>
        <mxCell id="XgDHDm4i5gvrloj-Nrfc-21" value="0..n" style="edgeLabel;resizable=0;html=1;align=left;verticalAlign=top;" connectable="0" vertex="1" parent="XgDHDm4i5gvrloj-Nrfc-20">
          <mxGeometry x="-1" relative="1" as="geometry" />
        </mxCell>
        <mxCell id="XgDHDm4i5gvrloj-Nrfc-22" value="1" style="edgeLabel;resizable=0;html=1;align=right;verticalAlign=top;" connectable="0" vertex="1" parent="XgDHDm4i5gvrloj-Nrfc-20">
          <mxGeometry x="1" relative="1" as="geometry" />
        </mxCell>
        <mxCell id="XgDHDm4i5gvrloj-Nrfc-24" value="1" style="endArrow=open;html=1;endSize=12;startArrow=diamondThin;startSize=14;startFill=1;edgeStyle=orthogonalEdgeStyle;align=left;verticalAlign=bottom;rounded=0;exitX=0;exitY=0.5;exitDx=0;exitDy=0;entryX=0;entryY=0.5;entryDx=0;entryDy=0;" edge="1" parent="1" source="XgDHDm4i5gvrloj-Nrfc-15" target="XgDHDm4i5gvrloj-Nrfc-23">
          <mxGeometry x="-1" y="3" relative="1" as="geometry">
            <mxPoint x="300" y="430" as="sourcePoint" />
            <mxPoint x="190" y="509" as="targetPoint" />
          </mxGeometry>
        </mxCell>
        <mxCell id="XgDHDm4i5gvrloj-Nrfc-25" value="profesores" style="swimlane;fontStyle=1;align=center;verticalAlign=top;childLayout=stackLayout;horizontal=1;startSize=26;horizontalStack=0;resizeParent=1;resizeParentMax=0;resizeLast=0;collapsible=1;marginBottom=0;whiteSpace=wrap;html=1;" vertex="1" parent="1">
          <mxGeometry x="180" y="710" width="160" height="190" as="geometry" />
        </mxCell>
        <mxCell id="XgDHDm4i5gvrloj-Nrfc-26" value="- nombre&lt;br&gt;- DNI&lt;br&gt;- asignaturas&lt;br&gt;- dirección&lt;br&gt;- teléfono" style="text;strokeColor=none;fillColor=none;align=left;verticalAlign=top;spacingLeft=4;spacingRight=4;overflow=hidden;rotatable=0;points=[[0,0.5],[1,0.5]];portConstraint=eastwest;whiteSpace=wrap;html=1;" vertex="1" parent="XgDHDm4i5gvrloj-Nrfc-25">
          <mxGeometry y="26" width="160" height="114" as="geometry" />
        </mxCell>
        <mxCell id="XgDHDm4i5gvrloj-Nrfc-27" value="" style="line;strokeWidth=1;fillColor=none;align=left;verticalAlign=middle;spacingTop=-1;spacingLeft=3;spacingRight=3;rotatable=0;labelPosition=right;points=[];portConstraint=eastwest;strokeColor=inherit;" vertex="1" parent="XgDHDm4i5gvrloj-Nrfc-25">
          <mxGeometry y="140" width="160" height="8" as="geometry" />
        </mxCell>
        <mxCell id="XgDHDm4i5gvrloj-Nrfc-28" value="+ method(profesores): profesores" style="text;strokeColor=none;fillColor=none;align=left;verticalAlign=top;spacingLeft=4;spacingRight=4;overflow=hidden;rotatable=0;points=[[0,0.5],[1,0.5]];portConstraint=eastwest;whiteSpace=wrap;html=1;" vertex="1" parent="XgDHDm4i5gvrloj-Nrfc-25">
          <mxGeometry y="148" width="160" height="42" as="geometry" />
        </mxCell>
        <mxCell id="XgDHDm4i5gvrloj-Nrfc-29" value="1" style="endArrow=open;html=1;endSize=12;startArrow=diamondThin;startSize=14;startFill=0;edgeStyle=orthogonalEdgeStyle;align=left;verticalAlign=bottom;rounded=0;exitX=0;exitY=0.5;exitDx=0;exitDy=0;entryX=0;entryY=0.25;entryDx=0;entryDy=0;" edge="1" parent="1" source="XgDHDm4i5gvrloj-Nrfc-19" target="XgDHDm4i5gvrloj-Nrfc-25">
          <mxGeometry x="-1" y="3" relative="1" as="geometry">
            <mxPoint x="254" y="610" as="sourcePoint" />
            <mxPoint x="414" y="610" as="targetPoint" />
          </mxGeometry>
        </mxCell>
      </root>
    </mxGraphModel>
  </diagram>
</mxfile>
